<svg xmlns="http://www.w3.org/2000/svg" width="25" height="25" viewBox="0 0 36.33 29.52">
  <defs>
    <style>
      .twitter-color{fill:#fff;}
    </style>
  </defs>
  <path id="twitter_icon" data-name="twitter icon" class="twitter-color" d="M11.43 29.52c13.71 0 21.21-11.36 21.21-21.21v-1a15.16 15.16 0 0 0 3.69-3.81A14.88 14.88 0 0 1 32 4.67 7.48 7.48 0 0 0 35.33.55a14.94 14.94 0 0 1-4.73 1.81 7.46 7.46 0 0 0-12.7 6.8A21.16 21.16 0 0 1 2.53 1.37a7.46 7.46 0 0 0 2.31 10 7.4 7.4 0 0 1-3.38-.93v.1a7.46 7.46 0 0 0 6 7.31 7.44 7.44 0 0 1-3.37.13 7.46 7.46 0 0 0 7 5.18 15 15 0 0 1-9.26 3.19A15.17 15.17 0 0 1 0 26.18a21.1 21.1 0 0 0 11.43 3.35"/>
</svg>
