<svg xmlns="http://www.w3.org/2000/svg" width="200" viewBox="0 0 163.87 75.34">
  <defs>
    <style>
      .cls-1{fill:none;}.cls-2{clip-path:url(#clip-path);}.cls-3{fill:#fff;}
    </style>
    <clipPath id="clip-path" transform="translate(-8.5 -8.5)">
      <path class="cls-1" d="M0 0h181.33v92.34H0z"/>
    </clipPath>
  </defs>
  <g id="Calque_2" data-name="Calque 2">
    <g id="Calque_1-2" data-name="Calque 1">
      <g id="section_1" data-name="section 1">
        <g class="cls-2 cls-2" id="logo">
          <path class="cls-3" d="M0 40.5c6.61-.22 13.22-.36 19.83-.5s13.22-.3 19.83-.39l19.84-.22 19.83-.18c13.22-.12 26.44-.12 39.66-.16s26.44 0 39.66.13l-.67 2.56-18-10.29-17.87-10.37-8.94-5.21-8.91-5.27C98.32 7.09 92.37 3.6 86.47.01c6.13 3.18 12.21 6.44 18.3 9.68l9.13 4.87 9.1 4.92 18.17 9.9 18.13 10 4.56 2.51h-5.22c-13.22.12-26.44.1-39.66.13s-26.44 0-39.66-.16L59.5 41.7l-19.83-.27c-6.61-.09-13.22-.23-19.83-.39S6.61 40.76 0 40.5"/>
          <path class="cls-3" d="M72.5 5.18q.58 8.77.78 17.54c.16 5.85.2 11.69.22 17.54s0 11.69-.18 17.54-.39 11.7-.82 17.54q-.58-8.77-.78-17.54c-.16-5.85-.2-11.69-.22-17.54s.06-11.69.22-17.54.39-11.69.78-17.54M42.67 15.1c.41 4.19.63 8.39.78 12.58s.2 8.39.22 12.58-.06 8.39-.22 12.58-.36 8.39-.78 12.58c-.42-4.19-.63-8.39-.78-12.58s-.2-8.39-.22-12.58.06-8.39.22-12.58.36-8.39.78-12.58"/>
        </g>
      </g>
    </g>
  </g>
</svg>
