<svg xmlns="http://www.w3.org/2000/svg" width="25" height="25" viewBox="0 0 29.84 29.84">
  <defs>
    <style>
      .facebook-color{fill:#fff;}
    </style>
  </defs>
  <path id="facebook_icon" data-name="facebook icon" class="facebook-color" d="M28.19 0H1.65A1.65 1.65 0 0 0 0 1.65v26.54a1.65 1.65 0 0 0 1.65 1.65h14.29V18.28H12v-4.5h3.89v-3.32c0-3.85 2.35-6 5.79-6a31.91 31.91 0 0 1 3.47.18v4h-2.33c-1.87 0-2.23.89-2.23 2.19v2.88H25l-.58 4.5h-3.83v11.63h7.6a1.65 1.65 0 0 0 1.65-1.65V1.65A1.65 1.65 0 0 0 28.19 0z"/>
</svg>
