<svg xmlns="http://www.w3.org/2000/svg" width="25" height="25" viewBox="0 0 31.11 31.11">
  <defs>
    <style>
      .linkedin-color{fill:#fff;}
    </style>
  </defs>
  <path class="linkedin-color" d="M28.81 0H2.3A2.27 2.27 0 0 0 0 2.24v26.63a2.27 2.27 0 0 0 2.3 2.25h26.51a2.28 2.28 0 0 0 2.3-2.25V2.24A2.27 2.27 0 0 0 28.81 0zM9.23 26.51H4.61V11.66h4.62zM6.92 9.64A2.68 2.68 0 1 1 9.59 7a2.67 2.67 0 0 1-2.67 2.64zm19.59 16.87H21.9v-7.22c0-1.72 0-3.94-2.4-3.94s-2.77 1.88-2.77 3.81v7.34h-4.61V11.66h4.43v2h.06A4.85 4.85 0 0 1 21 11.3c4.67 0 5.54 3.07 5.54 7.07z" id="linkedin_icon" data-name="linkedin icon"/>
</svg>
